<svg xmlns="http://www.w3.org/2000/svg" viewBox="0 0 511.915 511.915"><path d="M282.758 119.83l26.48-18.896a8.533 8.533 0 00-.093-13.958l-6.3-4.371a8.372 8.372 0 00-8.508-.613l-9.106 4.541a8.54 8.54 0 00.827 15.633c1.803.677 3.095 1.159 3.421 1.274l-15.424 7.687 8.703 8.703zm-60.928 83.03a42.735 42.735 0 0012.459-12.288l38.059-57.003.085-.085-.085-.085-14.336-14.336h-.085l-1.279.683a196.826 196.826 0 00-65.11 51.968l-3.498 4.267c-11.353 13.953-10.92 34.079 1.023 47.531l32.767-20.652zm-98.987 84.139l50.091-25.173a8.43 8.43 0 004.694-8.619l-.341-2.901-63.147 35.924a8.609 8.609 0 008.703.769zm136.448 12.97a8.293 8.293 0 000-11.862 12.157 12.157 0 00-2.475-1.792c-.255 0-.426-.171-.683-.171a7.396 7.396 0 00-2.731-.512 8.689 8.689 0 00-5.973 2.475 8.446 8.446 0 000 11.861 8.7 8.7 0 0011.862.001zm68.437-43.008v15.616a16.843 16.843 0 01-4.948 12.032l-24.919 24.917v11.776l48.215-48.299L342.492 248l-14.764 8.961z"/><path d="M487.132 101.228a83.851 83.851 0 00-27.393-18.432 85.164 85.164 0 00-32.426-6.4 83.81 83.81 0 00-59.904 24.832l-.769.768c.598-.853 1.195-1.792 1.877-2.645 3.755-4.779 7.083-9.045 10.07-12.971l.085-.085a8.652 8.652 0 001.109-1.365c7.935-10.069 13.398-16.981 16.554-20.736a20.19 20.19 0 004.608-12.885 20.406 20.406 0 00-13.141-18.944l-15.871-5.973-8.875-3.328a153.102 153.102 0 00-110.423 1.195L226.35 34.755a8.56 8.56 0 001.878 16.384l34.475 5.291c2.048.256 4.181.683 6.315 1.109 1.621.341 3.327.683 5.035 1.109a200.5 200.5 0 0123.807 6.827c4.523 1.536 8.96 3.243 13.141 4.949-.171 0 13.141 5.461 14.507 6.4a20.29 20.29 0 0110.836 16.896 17.664 17.664 0 01-7.252 14.08l-39.936 28.416a16.287 16.287 0 01-2.559 6.741l-36.693 55.125v1.024l-5.121 56.576 5.803-.085a17.183 17.183 0 0112.288 5.206 17.37 17.37 0 014.693 12.202 21.7 21.7 0 013.841 3.072c9.898 9.93 9.898 25.995 0 35.925a24.656 24.656 0 01-13.996 7.168l-1.279 5.376 4.865 44.373-17.58-3.584-4.352-38.912a17.771 17.771 0 01.513-6.144l1.023-4.267a22.563 22.563 0 01-5.204-3.925c-9.9-9.962-9.9-26.049 0-36.011a22.533 22.533 0 015.205-3.925 17.563 17.563 0 01-8.448-5.035 16.899 16.899 0 01-4.352-12.971l3.329-37.035c-.085.085-.085.171-.171.171l-37.717 23.808 1.28 10.069a25.28 25.28 0 01-13.996 25.941l-50.004 25.088a25.041 25.041 0 01-11.435 2.731 25.525 25.525 0 01-18.005-7.424l-1.963-2.048-10.155 15.275a51.12 51.12 0 01-26.197 19.968l-22.187 7.595-14.677-4.949 17.067-13.824 14.336-4.949a34.368 34.368 0 0017.493-13.312l7.936-12.032 9.729-14.677-6.145-2.048a17.424 17.424 0 00-16.726 3.072L3.12 329.836a8.54 8.54 0 002.645 14.678l4.608 1.536c.378.193.78.336 1.195.427l32.768 11.093a9.308 9.308 0 005.292 0l80.64-25.429c.427-.171.768-.256 1.109-.427l50.689-24.149-5.206 22.272a83.145 83.145 0 00-54.955 24.661c-29.514 29.507-33.026 76.157-8.261 109.75 24.765 33.593 70.366 44.037 107.283 24.571 36.917-19.466 54.058-62.995 40.328-102.406l12.203 2.475a26.43 26.43 0 0024.064-7.253l108.203-108.203a26.222 26.222 0 005.632-29.099 90.083 90.083 0 0015.873 1.451c34.247-.004 65.121-20.632 78.232-52.27 13.109-31.639 5.876-68.059-18.33-92.286zM261.936 39.02h-.171c.171-.085.341-.085.427-.171-.085.085-.17.171-.256.171zM219.44 395.03a39.564 39.564 0 013.413 10.155h-7.509l4.096-10.155zm-69.46 46.678a41.476 41.476 0 01-10.667-27.989c-.014-.712.014-1.425.085-2.133l18.773 3.755a22.12 22.12 0 002.304 8.96l-10.495 17.407zm-6.315-46.592v-.085a41.661 41.661 0 0122.783-20.651l-5.717 24.064-17.066-3.328zm37.887 60.843a41.845 41.845 0 01-17.749-3.925l9.131-15.189a24.764 24.764 0 006.144 2.048c1.32.273 2.663.416 4.011.427l13.825 13.824-15.362 2.815zm29.867-12.459l-10.325-10.325a25.308 25.308 0 007.167-10.069l.341-.853h14.336a41.506 41.506 0 01-11.519 21.247zm216.235-325.206c1.195 0 2.474.085 3.67.171v8.277a33.82 33.82 0 00-18.859 3.499l-4.267-7.168a42.047 42.047 0 0119.456-4.779zm-32.768 15.872l3.072 5.035h-6.571a33.288 33.288 0 013.499-5.035zm-41.387-90.794l3.073-4.523c.171.085.341.085.511.171l15.872 5.973-5.29 7.851a9.18 9.18 0 001.194 11.52l2.988 2.987c-2.988 3.84-6.485 8.448-10.581 13.568l-4.523-4.523c-8.795-8.837-10.151-22.645-3.244-33.024zm4.693 241.749l-62.891 62.805a8.481 8.481 0 01-5.974 2.56 9.27 9.27 0 01-3.327-.683 8.596 8.596 0 01-5.206-7.936v-32.341a17.054 17.054 0 014.95-12.032l25.002-25.003-.085-15.531a17.046 17.046 0 018.278-14.592l14.848-8.96a17.155 17.155 0 0116.128-.768 16.863 16.863 0 019.472 12.971l3.584 25.088a17.091 17.091 0 01-4.779 14.422zm39.68-94.805a45.13 45.13 0 01-6.485-8.533l10.07-.085a32.262 32.262 0 002.304 2.731l-5.889 5.887zm7.424-25.686l-26.539.085-18.945-.085c-.143-1.16-.2-2.33-.17-3.499 0-1.596.085-3.192.255-4.779h20.225l25.003-.085h16.811a4.275 4.275 0 014.181 4.011 4.353 4.353 0 01-4.267 4.352h-16.554zm22.528 38.059a41.833 41.833 0 01-15.275-2.816l6.656-6.656a29.228 29.228 0 008.619 1.195c2.354.002 4.7-.255 6.997-.768h.085l3.754 7.595-10.836 1.45zm20.565-79.104a39.021 39.021 0 019.387 6.997 42.43 42.43 0 019.813 15.616l-7.851 2.645a35.095 35.095 0 00-7.85-12.373 28.293 28.293 0 00-3.498-2.987l-.001-9.898zm9.302 66.816l-3.67 3.243h-.085l-3.84-7.68h.085c.58-.438 1.122-.923 1.621-1.451a33.872 33.872 0 009.473-18.176l8.704-2.901a41.681 41.681 0 01-12.288 26.965z"/></svg>