<svg xmlns="http://www.w3.org/2000/svg" viewBox="0 0 512.053 512.053"><path d="M405.871 147.903a24.346 24.346 0 014.07-5.267c9.916-9.909 25.988-9.904 35.898.011 9.91 9.915 9.907 25.987-.006 35.898-9.914 9.912-25.985 9.911-35.898-.002a24.3 24.3 0 01-4.068-5.266" fill="#fec108"/><path d="M481.191 107.292c-29.738-29.785-77.991-29.823-107.776-.085-29.785 29.738-29.823 77.991-.085 107.776s77.991 29.823 107.776.085c29.72-29.765 29.758-77.964.085-107.776zm-17.408 89.173c-19.826 19.797-51.939 19.797-71.765 0a49.193 49.193 0 01-13.227-23.125v-25.515a50 50 0 0113.226-23.125c19.822-19.79 51.93-19.777 71.736.029s19.82 51.914.03 71.736z" fill="#607d8b"/><path d="M309.451 173.278l69.324.087 43.155-.087a12.72 12.72 0 0011.044-19.091 12.72 12.72 0 00-11.044-6.351l-69.551.087h-51.871l8.943 25.355z" fill="#cfd8dc"/><path d="M218.786 480.794c26.913-15.026 42.124-44.785 38.541-75.4s-25.256-56.056-54.912-64.461c-29.656-8.405-61.454 1.882-80.568 26.064s-21.779 57.497-6.752 84.41c20.561 36.692 66.934 49.835 103.691 29.387zm-81.08-41c-13.66-24.462-4.928-55.366 19.514-69.062a49.184 49.184 0 0125.85-6.44l24.553 6.938a50.016 50.016 0 0118.658 19.016 50.746 50.746 0 01-88.575 49.548z" fill="#607d8b"/><path d="M399.699 267.548L291.494 375.75a17.994 17.994 0 01-16.298 4.864l-22.017-4.437-17.919-3.669a18.01 18.01 0 00-20.396 11.008l-14.506 36.523a17.213 17.213 0 01-19.541 10.581h-.171a17.52 17.52 0 01-13.567-21.248l27.392-116.992-66.732 31.659L47.1 349.553 8.53 336.582l66.475-54.357a8.997 8.997 0 018.619-1.536l10.752 3.584a8.79 8.79 0 005.546.085l84.14-47.616 3.754-2.133-3.072-3.072c-16.531-16.445-17.932-42.734-3.242-60.843l3.412-4.267a205.719 205.719 0 0168.012-54.187l6.741-3.413 55.894-27.733a48.328 48.328 0 00-28.927-27.563 121.598 121.598 0 00-21.333-5.205l-35.756-5.547 26.283-10.496a143.723 143.723 0 01104.277-1.109l24.747 9.301a11.764 11.764 0 014.949 18.432c-5.119 6.059-15.956 19.968-27.989 35.328-27.291 35.048-24.332 84.905 6.912 116.48l30.977 31.232a18.08 18.08 0 01-.002 25.601z" fill="#f44335"/><path d="M247.805 322.588a8.87 8.87 0 00-.256 2.987l4.096 36.779-15.36-3.072-17.919-3.669a18.01 18.01 0 00-20.396 11.008l-14.507 36.523a17.16 17.16 0 01-16.811 10.923c-.07-1.577.073-3.155.427-4.693l27.392-116.992-66.731 31.659-80.64 25.512-38.57-12.971 66.475-54.357a8.997 8.997 0 018.619-1.536l10.752 3.584a8.79 8.79 0 005.546.085l84.14-47.616 3.754-2.133 38.571-24.491a50.31 50.31 0 0013.739-12.8l1.365 1.024-5.206 56.661a8.5 8.5 0 008.448 9.217h5.889a8.491 8.491 0 018.448 8.789l-.17 5.12-8.193 32.683-2.902 11.776z" fill="#ff5722"/><path d="M166.994 416.966a18.43 18.43 0 002.048 5.376 15.263 15.263 0 01-2.048-5.376z" fill="#c52828"/><g fill="#607d8b" transform="translate(1 1)"><path d="M185.109 251.273a17.047 17.047 0 01-9.302 17.323l-50.091 25.088a17.002 17.002 0 01-19.541-3.157l-7.254-7.168a8.111 8.111 0 001.792-.768l82.348-46.848 2.048 15.53z"/><circle cx="252.425" cy="293.129" r="16.93"/></g><path d="M289.33 309.6l-.006 32.401 62.848-62.848a8.466 8.466 0 002.395-7.182l-3.579-25.083a8.462 8.462 0 00-12.732-6.058l-14.885 8.933a8.466 8.466 0 00-4.11 7.258l-.003 15.64a8.461 8.461 0 01-2.48 5.985l-24.969 24.969a8.464 8.464 0 00-2.479 5.985zM392.445 51.398a11.845 11.845 0 01-2.646 7.509c-3.498 4.181-9.727 11.947-17.152 21.419l-9.813-9.899a17.571 17.571 0 01-2.219-22.272l8.789-13.056.171-.341 15.275 5.717a11.732 11.732 0 017.595 10.923z" fill="#f5f5f5"/><path d="M96.167 284.7l-14.251 21.333a41.628 41.628 0 01-21.845 16.64l-45.91 15.787-5.631-1.877 66.475-54.357a8.997 8.997 0 018.619-1.536l10.752 3.584a13.88 13.88 0 001.791.426zm227.925-183.808l-43.349 30.976c-.256-1.536-15.285 4.837-16.48 3.642l-4.598-26.682 55.894-27.733c-.171-.427-.341-.853-.513-1.195l9.131 6.571a8.903 8.903 0 01-.085 14.421z" fill="#607d8b"/><path d="M279.549 138.353l-38.059 57.088c-.407.66-.863 1.287-1.365 1.877a50.282 50.282 0 01-13.739 12.8l-38.571 24.491-3.072-3.072c-16.531-16.445-17.932-42.734-3.243-60.843l3.412-4.267a205.719 205.719 0 0168.012-54.187l6.741-3.413 18.774 18.773a8.536 8.536 0 011.11 10.753z" fill="#f44335"/><path d="M253.18 376.092v.085l-17.919-3.669a18.01 18.01 0 00-20.396 11.008l-14.506 36.523a17.213 17.213 0 01-19.541 10.581h-.171a17.452 17.452 0 01-11.604-8.277 18.43 18.43 0 01-2.048-5.376 15.824 15.824 0 01-.341-2.901 17.16 17.16 0 0016.811-10.923l14.507-36.523a18.01 18.01 0 0120.396-11.008l17.919 3.669 15.36 3.072 1.533 13.739z" fill="#d84315"/><path d="M399.699 267.548L291.494 375.75a17.994 17.994 0 01-16.298 4.864l-22.017-4.437v-.085l-1.535-13.739 6.656 1.365a17.997 17.997 0 0016.298-4.864l108.203-108.203a18.077 18.077 0 000-25.6l.085-.085 16.811 16.981a18.08 18.08 0 01.002 25.601z" fill="#c52828"/><path d="M359.438 245.678a16.995 16.995 0 00-25.575-12.163l-14.892 8.933a17.094 17.094 0 00-8.242 14.566l.017 15.596-24.958 24.962a17.081 17.081 0 00-4.992 12.021l-.009 32.404a8.532 8.532 0 0014.566 6.037l62.85-62.85a17.047 17.047 0 004.808-14.421l-3.573-25.085zm-61.575 75.716v-11.762l24.958-24.962a16.899 16.899 0 004.966-12.004l-.025-15.587 14.775-8.988 3.6 25.029-48.274 48.274z"/><path d="M427.322 76.482h-.017a84.15 84.15 0 00-59.892 24.821c-.252.253-.465.532-.715.788.631-.879 1.202-1.786 1.873-2.646 14.033-17.992 23.375-29.812 27.767-35.133a20.261 20.261 0 00-8.525-31.858l-24.683-9.275a152.645 152.645 0 00-110.467 1.167l-26.3 10.525a8.531 8.531 0 001.875 16.354l35.8 5.5a113.559 113.559 0 0119.775 4.896 39.675 39.675 0 0120.158 15.671l-46.698 23.211a8.283 8.283 0 00-2.915 1.449l-5.262 2.616a213.558 213.558 0 00-70.775 56.483l-3.45 4.233c-15.926 19.479-16.196 47.404-.65 67.188l-77.158 43.713-10.692-3.604a17.525 17.525 0 00-16.767 3.054L3.13 329.936a8.539 8.539 0 002.675 14.696l38.558 12.988a8.596 8.596 0 005.292.05l80.658-25.454a8.852 8.852 0 001.1-.429l50.692-24.104-5.246 22.385a82.576 82.576 0 00-54.938 24.535c-24.151 24.121-31.385 60.42-18.327 91.957s43.835 52.097 77.969 52.085h.017a84.307 84.307 0 0079.622-112.153l12.278 2.502a26.43 26.43 0 0024.058-7.242L405.755 273.54a26.636 26.636 0 005.653-29.195 85.294 85.294 0 0015.855 1.499 84.68 84.68 0 0073.417-42.292 84.682 84.682 0 00-73.358-127.07zm30.433 113.971a42.174 42.174 0 01-3.84 3.155l-3.79-7.601c.569-.498 1.206-.894 1.746-1.434a33.552 33.552 0 009.343-18.126l8.615-2.873a41.8 41.8 0 01-12.074 26.879zm-13.033-29.871a16.74 16.74 0 01-4.917 11.921c-.367.366-.792.644-1.185.971a21.5 21.5 0 004.61-12.959 20.96 20.96 0 00-4.127-12.435c.23.206.49.359.71.58a16.734 16.734 0 014.909 11.922zm-43.221 21.271c.735.902 1.488 1.797 2.355 2.67l-5.892 5.887a42.28 42.28 0 01-6.549-8.537l10.086-.02zm17.771 11.394a33.996 33.996 0 008.608 1.231h.009a34.305 34.305 0 007.021-.754l3.756 7.532a42.259 42.259 0 01-10.785 1.559h-.009a42.172 42.172 0 01-15.26-2.913l6.66-6.655zm40.381-44.271a29.587 29.587 0 00-11.255-15.223l.003-9.891a39.564 39.564 0 0119.125 22.489l-7.873 2.625zm-28.32-21.97a33.8 33.8 0 00-18.724 3.472l-4.256-7.111a42.083 42.083 0 0122.983-4.676l-.003 8.315zm-36.378 7.22l3.055 5.103-6.601.007a42.28 42.28 0 013.546-5.11zm26.975 22.144a4.28 4.28 0 014.233 4.033 4.391 4.391 0 01-4.25 4.342l-43.117.088-18.969-.063c-.06-1.189-.173-2.368-.173-3.567 0-1.602.123-3.182.232-4.765l62.044-.068zM383.897 51.436a3.073 3.073 0 01-.717 2.008c-2.371 2.872-6.159 7.607-11.248 14.053l-3.077-3.078a9.173 9.173 0 01-1.117-11.517l5.205-7.808 8.87 3.333a3.232 3.232 0 012.084 3.009zm-68.8 39.384l4.067 3.158-36.378 25.909-8.686-8.688 40.997-20.379zm-127 85.254l3.45-4.233a196.46 196.46 0 0165.149-51.992l1.296-.644 14.395 14.339c.007.034-.005.069.003.103l-38.027 57.023a41.98 41.98 0 01-12.542 12.258l-32.606 20.66c-11.986-13.416-12.46-33.549-1.118-47.514zm-10.843 74.325l.376 2.925a8.453 8.453 0 01-4.65 8.621l-50.133 25.108a8.322 8.322 0 01-8.617-.81l63.024-35.844zm-96.332 38.354l1.835.618-7.952 11.931a33.81 33.81 0 01-17.467 13.338l-14.346 4.914 37.93-30.801zm43.691 27.366l-77.442 24.438-6.462-2.177 22.071-7.561a50.938 50.938 0 0026.225-20.046l10.128-15.198 1.997 1.994a25.3 25.3 0 0029.4 4.725l50.05-25.067a25.537 25.537 0 0013.983-26.017l-1.281-9.997 37.673-23.87.235-.167-3.369 37.018c-.793 8.371 4.696 16.049 12.873 18.008a25.171 25.171 0 00-5.273 3.93c-9.925 9.949-9.925 26.055 0 36.004a25.074 25.074 0 005.235 3.912l-1.035 4.284a16.955 16.955 0 00-.533 6.196l4.352 38.924-6.477-1.32c-12.626-2.572-25.279 4.274-30.033 16.25l-14.483 36.517a8.855 8.855 0 01-10.083 5.358 9.063 9.063 0 01-7.008-10.954l27.417-116.996a8.537 8.537 0 00-11.975-9.654l-66.185 31.466zm122.875-16.05a8.397 8.397 0 1111.876-.009 8.41 8.41 0 01-11.876.009zm-86.683 98.517l-16.938-3.384a39.821 39.821 0 0122.558-20.6l-5.62 23.984zm-21.237 13.159l18.678 3.732a25.617 25.617 0 002.323 8.84l-10.457 17.448a41.83 41.83 0 01-10.749-27.92c0-.714.17-1.393.205-2.1zm33.37 25.123a26.669 26.669 0 006.142 2.139c1.339.243 2.694.379 4.054.409l13.728 13.73a42.184 42.184 0 01-15.282 2.919h-.009a41.98 41.98 0 01-17.73-4.02l9.097-15.177zm46.424-41.535a41.913 41.913 0 013.501 9.962l-7.452.001 3.951-9.963zm-7.863 48.316l-10.398-10.4a25.761 25.761 0 007.213-10.055l.329-.83 14.252-.002a41.97 41.97 0 01-11.396 21.287zm17.69 18.22a66.925 66.925 0 01-47.617 19.708h-.009c-35.475.067-64.902-27.433-67.233-62.832-2.331-35.399 23.235-66.52 58.412-71.106l-1.91 8.151c-30.108 5.519-51.033 33.095-48.243 63.578s28.373 53.802 58.983 53.764h.009a58.919 58.919 0 0041.941-17.362c19.941-20.089 22.985-51.44 7.281-74.99a9.216 9.216 0 012.744.078l7.063 1.439c14.287 26.116 9.635 58.528-11.421 79.572zm164.499-200.395L285.471 369.686a9.471 9.471 0 01-8.583 2.583l-15.859-3.232-4.899-44.401 1.317-5.443a25.38 25.38 0 0010.126-46.213 16.935 16.935 0 00-16.951-17.3l-5.8.079 5.15-56.6a7.951 7.951 0 00-.106-.973l36.773-55.139a16.835 16.835 0 002.565-6.777l39.902-28.419a17.274 17.274 0 007.25-14.012 17.638 17.638 0 00-7.175-14.237l-7.431-5.388a56.736 56.736 0 00-32.352-28.721 130.764 130.764 0 00-22.767-5.633l-4.85-.746a135.465 135.465 0 0194.75-.163l-3 4.501c-6.888 10.393-5.527 24.194 3.258 33.042l4.526 4.526a6304.985 6304.985 0 00-6.193 7.928 96.51 96.51 0 00-20.372 58.427c-.014.193-.111.357-.111.553 0 .228.112.419.129.643a96.62 96.62 0 0027.921 68.157l31 31.25c3.716 3.728 3.716 9.763-.001 13.496zm81.425-52.471a67.604 67.604 0 01-112.224-27.156l9.702.032c8.738 22.926 30.747 38.056 55.281 38.004h.009a59.087 59.087 0 0026.381-6.216l.11-.026.085-.066c23.761-11.836 36.765-38.019 31.837-64.104-4.928-26.085-26.588-45.719-53.03-48.071-26.442-2.352-51.227 13.152-60.681 37.958l-9.265.01c9.313-27.405 35.05-45.832 63.994-45.819h.009c27.355 0 52.015 16.482 62.477 41.757s4.667 54.363-14.685 73.697z"/></svg>